<svg width="16" height="16" viewBox="0 0 16 16" fill="none" xmlns="http://www.w3.org/2000/svg">
<path d="M15.8006 3.16498C15.7202 3.06863 15.6196 2.99112 15.5059 2.93792C15.3922 2.88473 15.2683 2.85715 15.1428 2.85712H3.85712L3.55212 1.17285C3.49223 0.843691 3.31872 0.545993 3.06183 0.331659C2.80494 0.117324 2.48097 -5.0477e-05 2.14641 1.62845e-08H0.857137C0.62981 1.62845e-08 0.411794 0.0903053 0.25105 0.25105C0.0903052 0.411794 0 0.62981 0 0.857137C0 1.08446 0.0903052 1.30248 0.25105 1.46322C0.411794 1.62397 0.62981 1.71427 0.857137 1.71427H1.90784L3.68712 11.4999C3.73489 11.7598 3.8337 12.0077 3.97783 12.2292C3.72265 12.5278 3.54872 12.8871 3.4728 13.2724C3.39689 13.6578 3.42156 14.0562 3.54443 14.4293C3.66731 14.8023 3.88424 15.1374 4.1743 15.4022C4.46437 15.6671 4.81777 15.8527 5.20044 15.9411C5.58311 16.0296 5.98213 16.018 6.359 15.9074C6.73587 15.7968 7.07789 15.591 7.35206 15.3098C7.62624 15.0285 7.82331 14.6814 7.92428 14.3018C8.02525 13.9222 8.02671 13.5231 7.92852 13.1428H10.3571C10.2379 13.6043 10.266 14.0915 10.4374 14.5362C10.6089 14.981 10.915 15.361 11.3131 15.6232C11.7112 15.8853 12.1813 16.0164 12.6576 15.9982C13.1339 15.98 13.5925 15.8133 13.9694 15.5215C14.3463 15.2298 14.6226 14.8274 14.7595 14.3709C14.8965 13.9144 14.8873 13.4264 14.7332 12.9754C14.5791 12.5243 14.2879 12.1327 13.9003 11.8553C13.5126 11.578 13.048 11.4287 12.5713 11.4285H5.65496C5.58816 11.4284 5.5235 11.4049 5.47222 11.3621C5.42094 11.3193 5.38627 11.2599 5.37425 11.1942L5.20854 10.2856H13.1499C13.6184 10.2856 14.072 10.1212 14.4316 9.82095C14.7913 9.52071 15.0341 9.10375 15.1178 8.6428L15.9863 3.86712C16.0087 3.74362 16.0036 3.61673 15.9715 3.4954C15.9394 3.37408 15.8811 3.26128 15.8006 3.16498ZM6.28567 13.7142C6.28567 13.8272 6.25216 13.9377 6.18937 14.0317C6.12658 14.1256 6.03733 14.1989 5.93292 14.2421C5.82851 14.2854 5.71361 14.2967 5.60277 14.2746C5.49192 14.2526 5.3901 14.1982 5.31019 14.1182C5.23027 14.0383 5.17585 13.9365 5.1538 13.8257C5.13175 13.7148 5.14307 13.5999 5.18632 13.4955C5.22957 13.3911 5.30281 13.3019 5.39678 13.2391C5.49075 13.1763 5.60123 13.1428 5.71425 13.1428C5.8658 13.1428 6.01114 13.203 6.1183 13.3101C6.22547 13.4173 6.28567 13.5626 6.28567 13.7142ZM12.5713 14.2856C12.4583 14.2856 12.3478 14.2521 12.2539 14.1893C12.1599 14.1265 12.0867 14.0373 12.0434 13.9329C12.0002 13.8285 11.9888 13.7136 12.0109 13.6027C12.0329 13.4919 12.0874 13.39 12.1673 13.3101C12.2472 13.2302 12.349 13.1758 12.4599 13.1537C12.5707 13.1317 12.6856 13.143 12.79 13.1863C12.8944 13.2295 12.9837 13.3028 13.0465 13.3967C13.1093 13.4907 13.1428 13.6012 13.1428 13.7142C13.1428 13.8657 13.0826 14.0111 12.9754 14.1182C12.8682 14.2254 12.7229 14.2856 12.5713 14.2856ZM13.4285 8.33708C13.4165 8.40243 13.3822 8.46157 13.3313 8.50433C13.2805 8.54709 13.2163 8.57079 13.1499 8.57137H4.89711L4.16997 4.5714H14.1156L13.4285 8.33708Z" fill="#5E5E5E"/>
</svg>
